<?xml version="1.0" standalone="no"?>
<!DOCTYPE svg PUBLIC "-//W3C//DTD SVG 20010904//EN"
 "http://www.w3.org/TR/2001/REC-SVG-20010904/DTD/svg10.dtd">
<svg version="1.0" xmlns="http://www.w3.org/2000/svg"
 width="750.000000pt" height="750.000000pt" viewBox="0 0 750.000000 750.000000"
 preserveAspectRatio="xMidYMid meet">

<g transform="translate(0.000000,750.000000) scale(0.100000,-0.100000)"
fill="#000000" stroke="none">
<path d="M1903 6449 c-225 -29 -395 -124 -533 -298 -99 -125 -160 -278 -160
-401 0 -102 50 -249 122 -356 100 -150 236 -263 435 -363 122 -61 177 -67 218
-26 29 28 34 88 10 123 -9 12 -64 46 -123 77 -191 97 -321 218 -392 362 -45
90 -53 198 -22 286 41 115 166 256 269 304 64 30 184 53 272 53 131 0 244 -31
396 -108 156 -80 287 -236 332 -396 8 -28 20 -126 28 -217 17 -207 30 -239
101 -239 17 0 24 -6 24 -19 0 -24 44 -78 70 -86 10 -3 32 1 49 9 23 12 34 29
51 83 98 302 370 553 727 672 262 88 522 95 790 21 124 -34 230 -99 284 -173
60 -82 27 -193 -90 -307 -37 -36 -73 -75 -79 -87 -21 -38 -14 -80 17 -115 25
-28 36 -33 74 -32 102 2 256 169 308 333 97 311 -158 561 -656 642 -119 19
-379 17 -499 -5 -250 -45 -485 -137 -656 -257 -84 -59 -204 -175 -246 -239
l-28 -43 -12 74 c-44 268 -227 501 -488 619 -101 46 -245 89 -351 105 -108 16
-146 17 -242 4z"/>
<path d="M3375 4965 c-142 -15 -267 -34 -418 -66 -55 -12 -112 -19 -127 -15
-19 3 -43 -2 -72 -18 -24 -12 -90 -38 -148 -56 -675 -212 -1114 -544 -1363
-1032 -106 -208 -152 -402 -151 -643 0 -141 18 -302 40 -358 3 -8 -11 -17 -40
-26 -50 -14 -181 -97 -318 -199 -170 -128 -224 -178 -248 -227 -58 -120 9
-240 135 -239 95 2 580 142 639 185 26 19 30 20 40 6 6 -8 40 -57 76 -109 85
-123 280 -317 395 -395 355 -239 749 -309 1265 -222 471 79 1025 314 1434 607
245 176 546 492 546 573 0 39 -40 79 -78 79 -36 0 -62 -25 -116 -109 -288
-446 -933 -863 -1599 -1032 -138 -35 -332 -69 -391 -69 -41 0 -42 1 -54 44 -8
32 -31 65 -79 118 -398 429 -626 1064 -560 1558 28 212 80 410 157 604 33 83
74 164 66 131 -26 -111 -63 -386 -81 -595 -26 -297 -17 -518 31 -757 72 -363
270 -756 391 -779 72 -14 142 51 129 119 -3 17 -35 74 -71 126 -131 196 -214
423 -251 686 -20 146 -15 545 10 720 56 396 149 770 263 1049 32 78 26 75 173
101 248 44 564 63 774 46 76 -7 145 -15 152 -19 9 -5 4 -21 -23 -62 -180 -280
-282 -872 -229 -1325 22 -185 71 -395 122 -529 8 -21 13 -40 11 -42 -6 -6 -64
145 -112 291 -87 266 -125 495 -125 755 0 303 61 532 185 695 80 104 91 139
55 175 -44 44 -133 9 -235 -94 -132 -133 -202 -319 -225 -603 -26 -321 70
-784 261 -1265 164 -412 312 -607 490 -647 105 -24 174 76 104 149 l-26 27 26
17 c34 22 57 78 49 114 -4 15 -34 67 -66 117 -153 229 -257 516 -298 818 -22
170 -11 459 26 672 43 249 85 394 193 667 l10 27 68 -23 c106 -36 252 -111
355 -181 185 -128 216 -141 258 -107 48 39 23 114 -76 220 -164 178 -446 303
-780 347 -138 18 -387 18 -569 0z m-1003 -452 c-146 -176 -292 -488 -362 -777
-99 -408 -95 -711 16 -1111 90 -326 294 -715 520 -992 l27 -33 -30 0 c-86 0
-298 52 -418 103 -437 184 -794 645 -892 1152 -26 134 -23 378 6 513 60 282
199 522 432 747 145 139 282 236 469 330 92 47 246 114 263 115 5 0 -9 -21
-31 -47z m-1166 -1959 c8 -20 14 -37 12 -38 -10 -7 -124 -34 -127 -30 -4 4 89
104 97 104 1 0 10 -16 18 -36z"/>
<path d="M5360 4574 c-286 -39 -476 -128 -642 -302 -179 -189 -240 -411 -179
-655 42 -164 113 -290 240 -420 300 -309 862 -507 1442 -507 228 0 415 40 549
117 37 21 105 77 156 128 109 109 165 209 191 344 52 265 -105 604 -441 949
-67 69 -108 87 -157 70 -49 -17 -73 -83 -48 -131 7 -11 62 -71 123 -132 256
-254 366 -450 366 -651 0 -135 -43 -230 -155 -345 -87 -89 -214 -146 -376
-170 -110 -16 -484 -6 -604 16 -375 69 -675 206 -868 398 -125 124 -195 254
-218 405 -24 154 28 290 161 422 129 128 266 183 525 211 127 13 456 6 719
-15 95 -8 178 -11 190 -6 76 29 62 114 -29 170 -146 89 -645 144 -945 104z"/>
<path d="M5563 4130 c-87 -52 -83 -198 6 -245 98 -50 211 16 211 123 0 85 -56
142 -140 142 -27 0 -58 -8 -77 -20z"/>
<path d="M6403 3780 c-87 -52 -83 -198 6 -245 98 -50 211 16 211 123 0 85 -56
142 -140 142 -27 0 -58 -8 -77 -20z"/>
</g>
</svg>
