<?xml version="1.0" standalone="no"?>
<!DOCTYPE svg PUBLIC "-//W3C//DTD SVG 20010904//EN"
 "http://www.w3.org/TR/2001/REC-SVG-20010904/DTD/svg10.dtd">
<svg version="1.0" xmlns="http://www.w3.org/2000/svg"
 width="750.000000pt" height="750.000000pt" viewBox="0 0 750.000000 750.000000"
 preserveAspectRatio="xMidYMid meet">

<g transform="translate(0.000000,750.000000) scale(0.100000,-0.100000)"
fill="#000000" stroke="none">
<path d="M3046 7247 c-22 -12 -49 -35 -60 -50 -30 -41 -28 -141 7 -295 25
-114 27 -138 27 -360 1 -305 10 -345 80 -345 35 0 74 32 100 83 47 94 95 391
88 550 l-3 88 40 -21 c73 -40 160 -138 204 -229 59 -122 75 -194 67 -303 -6
-77 -4 -95 12 -125 53 -97 199 -94 247 6 93 197 -43 604 -271 806 -66 59 -123
97 -219 146 -149 75 -247 90 -319 49z"/>
<path d="M1546 6660 c-66 -21 -119 -107 -155 -256 -46 -185 -50 -316 -15 -436
23 -78 83 -186 116 -209 62 -44 146 -29 192 34 30 41 27 111 -8 170 -26 45
-53 153 -42 165 4 3 23 -14 43 -37 123 -144 282 -239 457 -271 120 -22 268 7
295 58 34 64 -1 101 -128 137 -229 64 -364 165 -448 335 -36 74 -83 178 -83
186 0 2 -11 22 -25 42 -43 65 -134 102 -199 82z"/>
<path d="M5425 6360 c-102 -40 -163 -119 -190 -248 -8 -38 -22 -179 -30 -313
-32 -515 -59 -716 -166 -1266 l-10 -52 -36 25 c-50 34 -97 32 -134 -5 -22 -23
-29 -39 -29 -70 0 -43 6 -51 115 -171 76 -84 195 -234 263 -334 l62 -89 -21
-28 c-32 -45 -35 -89 -8 -123 21 -26 26 -28 71 -23 l48 6 24 -47 c33 -66 93
-246 108 -329 8 -42 13 -147 13 -273 0 -180 -3 -217 -24 -305 -100 -427 -328
-741 -632 -872 -338 -146 -765 -113 -1249 97 -351 152 -601 372 -742 655 -41
81 -90 223 -108 313 l-13 63 40 42 c76 78 92 139 47 184 -25 25 -51 27 -98 8
-19 -8 -19 -2 -13 219 l7 228 30 28 c36 34 39 75 9 114 l-21 27 22 154 c28
196 43 261 59 257 22 -5 262 18 356 34 261 44 579 145 796 254 185 93 375 252
447 373 154 257 111 594 -120 938 -63 95 -193 234 -251 269 -52 32 -103 26
-144 -15 -33 -33 -35 -39 -30 -82 4 -38 12 -53 40 -78 19 -16 63 -56 99 -87
129 -112 245 -302 287 -467 46 -182 15 -311 -106 -442 -184 -199 -562 -372
-993 -454 -136 -26 -375 -31 -494 -11 -289 49 -508 196 -588 394 -19 49 -23
75 -23 177 1 138 20 236 70 360 43 105 47 141 19 169 -22 23 -71 20 -118 -8
-130 -77 -248 -379 -233 -597 23 -333 311 -610 719 -690 32 -6 58 -13 58 -14
0 -1 -16 -50 -35 -108 -19 -59 -40 -137 -46 -174 -7 -37 -14 -70 -15 -71 -5
-7 -197 119 -292 192 -143 110 -290 237 -509 442 -105 99 -212 190 -236 202
-51 26 -134 29 -175 8 -63 -33 -94 -84 -153 -246 -120 -336 -191 -502 -351
-830 -203 -412 -208 -425 -208 -478 0 -54 17 -85 60 -107 39 -20 79 -19 117 5
35 21 48 43 92 152 16 41 89 203 161 359 132 284 247 545 322 734 22 55 44
104 49 109 9 10 12 7 273 -223 227 -200 329 -282 466 -374 96 -64 250 -146
325 -173 l30 -11 -8 -119 c-4 -65 -5 -187 -1 -270 l6 -151 -74 -11 c-40 -6
-140 -16 -223 -21 -82 -6 -211 -15 -285 -20 -74 -6 -158 -17 -185 -25 -105
-32 -180 -132 -209 -278 -24 -117 -27 -160 -45 -623 -18 -474 -17 -491 31
-542 28 -29 80 -46 119 -38 43 10 93 57 107 102 7 25 13 182 16 448 2 226 9
444 16 485 12 80 37 170 48 170 4 0 102 11 217 25 198 23 382 52 468 74 35 8
39 7 48 -16 5 -13 9 -30 9 -38 0 -7 14 -53 31 -102 58 -164 155 -339 248 -445
23 -25 41 -53 41 -62 0 -23 -180 -206 -295 -301 -55 -45 -170 -133 -255 -197
-85 -63 -170 -132 -189 -153 -89 -102 -93 -194 -16 -395 36 -93 107 -307 157
-469 26 -83 40 -112 73 -148 36 -40 47 -46 91 -50 86 -9 154 47 154 125 0 28
-61 216 -204 630 -20 56 -36 106 -36 111 0 4 48 46 108 92 272 213 461 403
547 552 15 26 31 47 35 47 5 0 46 -27 92 -60 240 -172 582 -316 921 -387 118
-25 153 -28 327 -28 149 0 214 4 277 18 389 84 651 293 839 672 l67 132 46
-15 c29 -10 104 -17 206 -21 l159 -6 8 -35 c4 -19 12 -100 18 -180 13 -166 30
-218 82 -250 63 -38 153 -21 194 39 31 43 34 81 19 215 -34 312 -71 414 -170
472 -61 35 -121 33 -330 -15 -93 -22 -171 -38 -173 -36 -2 2 8 54 22 117 31
140 50 330 41 423 l-6 70 70 13 c102 19 316 103 503 198 l47 24 24 -83 c14
-45 30 -104 37 -132 28 -111 82 -165 167 -165 92 0 151 83 134 188 -10 58 -64
243 -98 334 -35 95 -89 153 -160 174 -90 26 -123 14 -383 -141 -205 -122 -367
-208 -373 -198 -3 5 -12 36 -21 70 -9 34 -38 116 -65 183 l-48 120 106 78
c194 143 421 354 653 610 36 39 71 72 77 72 6 0 29 -12 51 -26 79 -52 177 -38
220 31 22 35 26 97 10 139 -15 41 -84 100 -164 141 -67 34 -80 37 -134 33 -94
-7 -133 -37 -328 -258 -152 -173 -584 -610 -602 -610 -4 0 -26 31 -49 68 -22
37 -75 115 -117 173 -42 59 -76 111 -76 116 0 6 9 18 21 29 52 47 136 269 183
484 49 223 73 409 121 925 14 149 30 285 36 304 11 33 12 33 61 28 65 -8 204
-68 303 -131 72 -46 85 -51 138 -51 55 0 61 2 93 37 28 32 34 45 34 84 0 26
-8 59 -17 76 -55 92 -444 269 -591 267 -31 0 -79 -9 -107 -19z"/>
<path d="M3653 5410 c-87 -52 -83 -198 6 -245 98 -50 211 16 211 123 0 85 -56
142 -140 142 -27 0 -58 -8 -77 -20z"/>
<path d="M2843 5170 c-87 -52 -83 -198 6 -245 98 -50 211 16 211 123 0 85 -56
142 -140 142 -27 0 -58 -8 -77 -20z"/>
<path d="M3433 1728 c-12 -13 -28 -40 -36 -60 -25 -61 -95 -162 -241 -348
-164 -210 -189 -258 -190 -355 -1 -60 4 -79 33 -137 38 -75 180 -240 238 -275
83 -50 180 -19 216 68 30 71 14 111 -89 221 -46 50 -87 101 -90 114 -5 19 14
56 87 171 93 150 176 305 200 378 29 89 9 221 -36 239 -33 12 -72 6 -92 -16z"/>
</g>
</svg>
