<?xml version="1.0" standalone="no"?>
<!DOCTYPE svg PUBLIC "-//W3C//DTD SVG 20010904//EN"
 "http://www.w3.org/TR/2001/REC-SVG-20010904/DTD/svg10.dtd">
<svg version="1.0" xmlns="http://www.w3.org/2000/svg"
 width="750.000000pt" height="750.000000pt" viewBox="0 0 750.000000 750.000000"
 preserveAspectRatio="xMidYMid meet">

<g transform="translate(0.000000,750.000000) scale(0.100000,-0.100000)"
fill="#000000" stroke="none">
<path d="M2721 7410 c-235 -33 -466 -113 -629 -216 -29 -19 -57 -34 -62 -34
-13 0 -170 -150 -170 -162 0 -4 -16 -31 -35 -59 -80 -117 -136 -282 -150 -444
-22 -264 134 -659 327 -830 59 -51 203 -126 246 -127 64 -2 97 45 68 98 -8 16
-58 81 -111 144 -53 63 -112 140 -130 171 -37 61 -94 189 -114 259 -7 25 -18
59 -23 75 -19 59 -21 245 -4 324 50 237 235 429 505 526 38 14 78 25 90 25 11
0 53 9 93 19 170 46 399 49 583 9 50 -10 109 -23 131 -28 129 -28 276 -111
386 -218 131 -127 198 -234 244 -389 24 -78 27 -106 27 -238 1 -182 -22 -293
-114 -559 -94 -269 -165 -487 -177 -541 -6 -27 -18 -79 -26 -115 -8 -36 -27
-128 -42 -205 -50 -265 -43 -598 17 -819 11 -39 26 -102 35 -141 17 -80 30
-119 74 -230 51 -129 179 -373 207 -395 87 -68 191 34 137 135 -64 120 -183
392 -219 501 -67 200 -85 301 -92 509 -4 140 -2 209 12 310 22 169 86 421 169
665 37 107 70 213 75 235 5 22 27 101 50 175 82 268 105 455 76 634 -20 127
-42 202 -90 302 -19 40 -35 77 -35 83 0 37 -242 301 -276 301 -7 0 -34 17 -61
37 -93 71 -300 153 -488 194 -103 23 -398 34 -504 19z"/>
<path d="M2793 6190 c-87 -52 -83 -198 6 -245 35 -18 100 -20 134 -4 34 16 67
78 67 129 0 51 -33 113 -67 129 -37 17 -104 13 -140 -9z"/>
<path d="M1603 5720 c-86 -52 -82 -189 6 -235 66 -34 155 -11 191 48 57 93 -9
207 -120 207 -27 0 -58 -8 -77 -20z"/>
<path d="M2413 5613 c-13 -2 -31 -17 -42 -32 -27 -37 -141 -270 -141 -287 0
-16 -141 -325 -233 -509 -78 -157 -137 -283 -137 -295 0 -7 -21 -55 -80 -184
-69 -153 -68 -220 7 -270 55 -38 108 -33 188 17 11 7 76 68 144 136 160 159
301 263 599 442 137 81 172 117 172 176 0 75 -66 130 -143 120 -21 -3 -62 -20
-91 -38 -28 -17 -76 -45 -106 -62 -69 -37 -254 -153 -297 -185 l-33 -24 7 33
c3 19 26 77 51 129 56 122 125 289 162 393 94 269 108 413 44 437 -26 10 -33
10 -71 3z"/>
<path d="M2752 4557 c-49 -52 -72 -205 -52 -339 28 -185 127 -538 205 -725 20
-48 44 -110 52 -138 9 -27 22 -60 30 -71 13 -20 10 -24 -61 -68 -99 -62 -220
-186 -282 -289 -27 -45 -51 -89 -55 -97 -3 -8 -21 -49 -41 -90 -160 -333 -205
-751 -110 -1015 74 -204 184 -362 337 -485 214 -171 480 -279 827 -335 l37 -6
-48 -68 c-66 -92 -81 -123 -81 -166 0 -50 23 -89 64 -109 96 -45 149 3 216
202 l42 122 118 0 c151 0 295 15 440 45 63 13 142 29 175 35 229 45 598 205
872 379 216 138 386 258 472 333 30 26 68 54 85 62 57 28 228 185 266 244 47
71 55 107 37 160 -21 61 -55 97 -127 136 -74 39 -343 145 -505 199 -744 245
-1052 357 -1193 432 -103 55 -139 58 -176 14 -57 -68 -21 -128 118 -193 93
-44 391 -144 571 -191 194 -52 616 -195 810 -275 109 -45 291 -138 306 -156
12 -14 -3 -32 -130 -156 -140 -135 -222 -208 -234 -208 -5 0 -142 -103 -227
-172 -41 -33 -211 -142 -285 -183 -39 -21 -72 -42 -75 -47 -7 -10 -190 -94
-305 -141 -465 -189 -996 -218 -1440 -80 -100 31 -303 127 -381 180 -83 57
-211 186 -266 268 -95 143 -133 269 -131 440 1 181 36 376 101 565 51 146 67
175 113 206 27 19 65 61 100 114 75 113 160 178 253 194 48 9 72 25 97 63 33
50 25 97 -40 223 -32 64 -83 179 -113 255 -60 153 -170 491 -186 570 -5 28
-17 84 -26 125 -9 41 -21 101 -27 133 -17 81 -45 121 -90 125 -26 2 -40 -3
-57 -21z"/>
<path d="M4792 980 c-27 -11 -44 -52 -36 -88 33 -144 87 -212 169 -212 29 0
45 8 72 35 33 33 35 39 30 83 -4 42 -11 53 -68 106 -35 32 -73 62 -84 66 -43
16 -61 18 -83 10z"/>
<path d="M5408 886 c-78 -21 -108 -58 -88 -107 16 -37 59 -63 135 -83 70 -18
99 -13 137 22 36 33 45 80 24 121 -30 58 -104 75 -208 47z"/>
<path d="M4971 624 c-26 -33 -28 -101 -5 -150 47 -98 184 -71 184 36 0 27 -9
49 -34 82 -38 49 -52 58 -96 58 -19 0 -36 -9 -49 -26z"/>
<path d="M4761 599 c-31 -30 -51 -82 -72 -188 -11 -49 -10 -61 6 -94 40 -85
148 -87 191 -5 14 26 16 50 11 124 -12 173 -64 236 -136 163z"/>
<path d="M3220 569 c-93 -47 -120 -79 -120 -147 0 -35 6 -49 29 -73 25 -24 37
-29 81 -29 49 0 53 2 106 58 79 82 116 141 109 172 -19 74 -83 80 -205 19z"/>
<path d="M3843 440 c-79 -48 -85 -182 -11 -234 15 -11 45 -16 91 -16 62 0 71
3 98 29 26 27 29 36 29 98 0 76 -13 104 -60 128 -41 21 -109 19 -147 -5z"/>
<path d="M3521 431 c-30 -30 -48 -69 -71 -161 -25 -97 -21 -136 16 -174 34
-34 81 -42 128 -22 28 12 42 26 58 63 20 44 20 56 11 151 -11 122 -29 155 -86
160 -25 2 -42 -3 -56 -17z"/>
</g>
</svg>
