<?xml version="1.0" standalone="no"?>
<!DOCTYPE svg PUBLIC "-//W3C//DTD SVG 20010904//EN"
 "http://www.w3.org/TR/2001/REC-SVG-20010904/DTD/svg10.dtd">
<svg version="1.0" xmlns="http://www.w3.org/2000/svg"
 width="800.000000pt" height="800.000000pt" viewBox="0 0 800.000000 800.000000"
 preserveAspectRatio="xMidYMid meet">

<g transform="translate(0.000000,800.000000) scale(0.100000,-0.100000)"
fill="#000000" stroke="none">
<path d="M3695 7881 c-382 -83 -839 -476 -1052 -906 -104 -210 -126 -293 -127
-475 -1 -112 3 -151 23 -224 48 -183 132 -326 267 -456 115 -111 219 -176 387
-246 l79 -32 -53 -7 c-255 -35 -567 -300 -730 -620 -24 -47 -48 -85 -53 -85
-5 0 -54 21 -110 46 -114 53 -571 230 -630 245 -80 20 -155 -34 -163 -118 -4
-39 0 -55 19 -83 33 -48 73 -68 293 -144 203 -71 456 -170 491 -192 21 -13 22
-14 6 -81 -24 -108 -21 -328 7 -428 40 -147 130 -309 233 -421 l38 -41 -58
-36 c-74 -46 -186 -162 -247 -257 -211 -328 -367 -972 -326 -1344 34 -311 134
-543 336 -779 l67 -79 -23 -15 c-47 -31 -145 -140 -182 -202 -119 -200 -156
-402 -99 -534 81 -183 358 -304 632 -276 277 28 497 144 672 356 71 86 46 83
253 30 276 -70 465 -97 694 -97 660 0 1120 298 1427 925 167 342 232 646 206
958 -29 334 -148 693 -311 936 -75 112 -233 297 -275 322 -94 57 -193 -33
-142 -129 8 -15 51 -58 95 -96 237 -204 391 -474 477 -842 27 -111 29 -133 29
-339 0 -245 -9 -304 -72 -493 -159 -478 -412 -802 -762 -977 -154 -77 -314
-118 -538 -137 -121 -10 -166 -9 -310 5 -171 17 -393 58 -538 100 l-80 23 -6
50 c-8 65 -25 90 -77 116 -39 18 -48 19 -85 8 -23 -7 -56 -27 -74 -46 l-31
-34 -59 26 c-248 108 -515 277 -528 333 -8 38 -42 68 -87 76 -28 5 -48 21 -90
68 -227 259 -328 516 -328 838 0 365 139 856 320 1134 56 85 157 191 229 240
49 33 31 38 166 -45 145 -90 396 -189 565 -224 255 -52 454 -48 705 14 482
119 880 429 1088 845 128 256 155 486 91 777 -6 26 0 31 100 95 187 120 280
187 304 223 61 90 -26 214 -136 194 -30 -6 -248 -143 -341 -215 -13 -11 -27
-19 -31 -19 -5 0 -23 26 -40 58 -61 107 -197 267 -270 316 -31 21 -99 21 -129
0 -13 -9 -30 -32 -38 -51 -22 -53 -4 -91 75 -159 37 -31 82 -73 100 -93 45
-48 132 -171 132 -185 0 -7 -44 -43 -97 -81 -129 -92 -239 -197 -254 -242 -10
-31 -9 -39 8 -62 41 -55 137 -33 333 78 58 33 108 56 112 52 17 -16 30 -210
19 -295 -24 -197 -136 -429 -292 -602 -208 -230 -455 -379 -764 -460 -133 -35
-410 -45 -550 -21 -242 43 -545 168 -638 265 -18 18 -48 42 -68 52 -52 27
-170 160 -220 248 -65 113 -90 199 -96 322 -5 91 7 213 21 228 3 2 57 -21 120
-52 188 -91 259 -113 312 -96 39 13 54 35 54 78 0 41 -58 92 -228 202 -199
130 -180 111 -159 156 38 80 132 209 220 300 174 182 280 243 481 273 68 11
138 27 155 35 34 18 47 51 37 92 -6 24 -5 26 16 20 50 -13 249 -18 348 -8 129
14 306 58 419 106 141 59 219 112 321 215 80 80 104 112 143 191 80 159 86
269 18 334 -59 57 -155 38 -194 -38 -11 -20 -23 -68 -27 -105 -10 -91 -47
-158 -135 -246 -110 -110 -296 -198 -492 -231 -130 -22 -382 -15 -499 15 -185
46 -338 116 -462 208 -184 139 -292 349 -292 570 0 122 20 203 84 338 67 139
122 225 223 346 104 123 193 204 320 289 222 149 380 196 529 156 76 -20 137
-60 209 -138 112 -121 176 -285 161 -410 l-7 -56 -293 -4 c-261 -3 -295 -5
-319 -21 -60 -39 -56 -99 11 -143 65 -45 258 -73 632 -94 113 -7 206 -13 207
-14 2 -1 -55 -15 -125 -30 -146 -32 -280 -69 -312 -86 -33 -18 -60 -70 -60
-117 0 -50 34 -96 84 -113 37 -12 47 -10 190 31 127 37 392 102 526 128 125
25 629 128 719 148 35 7 76 20 92 28 96 50 84 196 -21 252 -43 23 -46 23 -415
23 -204 0 -453 3 -552 7 l-180 6 23 56 c29 68 32 192 8 285 -23 91 -86 215
-152 298 -86 108 -178 173 -312 220 -62 22 -247 33 -315 19z m-1074 -6954
c129 -97 298 -193 462 -263 56 -24 103 -47 105 -52 1 -5 -28 -40 -66 -78 -204
-207 -572 -257 -747 -102 -32 28 -35 34 -35 88 0 67 36 186 83 274 34 64 121
166 142 166 6 0 32 -15 56 -33z"/>
<path d="M3653 7320 c-87 -52 -83 -198 6 -245 98 -50 211 16 211 123 0 85 -56
142 -140 142 -27 0 -58 -8 -77 -20z"/>
<path d="M3123 6820 c-87 -52 -83 -198 6 -245 98 -50 211 16 211 123 0 85 -56
142 -140 142 -27 0 -58 -8 -77 -20z"/>
<path d="M5845 1307 c-67 -67 -60 -121 30 -232 73 -90 135 -201 160 -289 47
-160 -42 -329 -219 -416 -125 -62 -229 -73 -403 -45 -125 20 -202 50 -328 127
-74 45 -144 -9 -111 -85 49 -113 206 -215 424 -274 105 -28 314 -25 410 6 233
75 380 206 460 410 22 57 26 82 26 181 1 98 -3 127 -26 200 -34 106 -93 222
-166 324 -71 98 -110 126 -175 126 -42 0 -54 -5 -82 -33z"/>
</g>
</svg>
