<?xml version="1.0" standalone="no"?>
<!DOCTYPE svg PUBLIC "-//W3C//DTD SVG 20010904//EN"
 "http://www.w3.org/TR/2001/REC-SVG-20010904/DTD/svg10.dtd">
<svg version="1.0" xmlns="http://www.w3.org/2000/svg"
 width="750.000000pt" height="750.000000pt" viewBox="0 0 750.000000 750.000000"
 preserveAspectRatio="xMidYMid meet">

<g transform="translate(0.000000,750.000000) scale(0.100000,-0.100000)"
fill="#000000" stroke="none">
<path d="M4410 7341 c-70 -22 -281 -156 -530 -336 -569 -410 -882 -822 -956
-1260 -30 -180 2 -499 71 -697 13 -38 19 -68 13 -68 -21 0 -176 170 -223 244
-138 222 -195 442 -195 756 0 214 19 365 74 598 20 82 36 171 36 198 0 114
-105 180 -197 123 -128 -79 -640 -769 -950 -1279 -228 -375 -517 -927 -730
-1395 -194 -427 -492 -1139 -500 -1197 -16 -112 97 -167 174 -85 16 17 65 79
109 137 91 121 329 364 454 464 194 154 456 306 528 306 54 0 85 -36 119 -138
11 -34 17 -105 20 -254 5 -205 -1 -315 -33 -572 -19 -149 -12 -189 37 -230 52
-44 139 -27 183 36 158 225 212 299 290 397 152 191 341 380 434 434 l31 18
25 -81 c32 -100 56 -147 93 -182 72 -69 161 -63 259 17 l42 34 22 -60 c51
-142 148 -261 285 -351 39 -25 156 -89 260 -143 396 -204 571 -339 750 -577
164 -217 262 -437 321 -718 49 -237 42 -583 -15 -729 -25 -61 -26 -97 -7 -148
8 -21 17 -51 21 -67 10 -46 34 -74 79 -91 62 -24 113 -8 164 51 94 106 224
370 306 620 50 150 68 251 73 415 5 135 3 171 -17 270 -38 193 -103 343 -213
494 -33 45 -165 185 -301 320 -263 260 -294 301 -327 428 -15 55 -19 107 -19
230 0 148 1 159 18 152 89 -37 149 -39 299 -9 40 8 79 14 88 14 9 0 57 -39
107 -86 246 -233 423 -196 616 130 33 56 88 150 124 210 35 60 71 114 80 120
22 13 89 -37 283 -209 296 -262 360 -305 463 -313 79 -5 112 7 159 62 51 58
67 122 60 250 -3 61 -15 152 -26 201 -47 213 -130 549 -236 950 -236 900 -327
1369 -414 2147 -6 48 -15 105 -21 127 -14 54 -60 97 -110 106 -83 14 -154 -48
-195 -170 -25 -77 -82 -237 -135 -380 -226 -610 -473 -986 -987 -1502 l-177
-178 -32 70 c-18 39 -45 108 -61 155 -24 73 -28 100 -27 195 0 99 3 119 33
197 36 97 125 256 261 470 115 180 224 398 252 505 19 73 20 87 8 129 -15 52
-58 107 -101 130 -15 7 -55 14 -88 14 -51 0 -72 -6 -138 -41 -43 -23 -113 -65
-155 -95 -43 -29 -78 -49 -78 -45 0 4 11 41 25 82 37 108 102 215 152 252 60
42 83 96 90 205 5 79 3 95 -16 136 -34 68 -115 108 -181 87z m-330 -550 c-11
-29 -34 -96 -50 -149 -17 -53 -53 -164 -80 -247 -78 -233 -79 -297 -6 -370 47
-47 87 -61 143 -50 28 5 59 29 142 113 105 106 256 230 267 219 3 -3 -20 -47
-52 -99 -277 -451 -332 -558 -371 -719 -22 -94 -22 -233 0 -326 24 -102 90
-284 138 -379 l40 -81 -36 -52 c-41 -62 -43 -80 -12 -117 30 -35 76 -35 152 1
229 109 661 540 953 952 195 276 397 656 553 1041 17 42 36 88 41 102 9 21 15
1 39 -130 49 -259 79 -406 125 -610 65 -288 82 -359 214 -890 198 -794 290
-1245 290 -1421 0 -75 -3 -99 -13 -99 -34 0 -127 78 -316 264 -276 271 -338
316 -434 316 -60 0 -138 -41 -186 -99 -22 -25 -84 -120 -140 -209 -102 -166
-166 -255 -202 -280 -17 -12 -23 -11 -48 10 -16 13 -54 53 -85 89 -99 117
-178 155 -299 146 -40 -3 -109 -11 -154 -18 -77 -12 -83 -12 -104 7 -33 29
-62 80 -104 182 -46 112 -81 146 -149 144 -75 -1 -126 -52 -126 -126 0 -19 11
-70 24 -112 l25 -77 -19 -81 c-51 -217 -64 -572 -26 -690 50 -154 138 -280
294 -424 271 -248 374 -360 451 -489 49 -83 96 -225 118 -353 14 -81 15 -113
5 -219 -10 -104 -48 -288 -58 -278 -2 1 -8 52 -14 112 -48 484 -203 855 -503
1206 -157 184 -372 338 -764 550 -103 56 -215 121 -249 144 -100 72 -159 156
-195 285 -23 79 -24 109 -4 146 31 60 6 137 -54 169 -63 32 -127 9 -181 -67
-90 -127 -113 -158 -119 -158 -4 0 -19 25 -34 55 -58 118 -149 183 -242 173
-148 -17 -371 -228 -706 -668 l-26 -34 5 160 c10 343 -38 587 -138 714 -66 83
-193 114 -312 75 -176 -58 -468 -267 -730 -524 -43 -41 -78 -73 -78 -70 0 11
136 370 195 514 101 247 186 434 327 715 261 523 523 949 841 1370 114 151
347 433 353 428 1 -2 -3 -53 -11 -113 -56 -459 -4 -842 156 -1168 141 -285
397 -495 669 -547 121 -24 210 8 210 74 0 40 -21 61 -83 82 -26 9 -49 19 -52
24 -14 23 -70 330 -90 495 -24 194 -20 373 10 491 31 121 110 287 197 409 75
107 299 335 419 428 95 74 272 197 277 192 1 -1 -6 -26 -18 -54z"/>
<path d="M3393 6080 c-87 -52 -83 -198 6 -245 98 -50 211 16 211 123 0 85 -56
142 -140 142 -27 0 -58 -8 -77 -20z"/>
</g>
</svg>
