<?xml version="1.0" standalone="no"?>
<!DOCTYPE svg PUBLIC "-//W3C//DTD SVG 20010904//EN"
 "http://www.w3.org/TR/2001/REC-SVG-20010904/DTD/svg10.dtd">
<svg version="1.0" xmlns="http://www.w3.org/2000/svg"
 width="750.000000pt" height="750.000000pt" viewBox="0 0 750.000000 750.000000"
 preserveAspectRatio="xMidYMid meet">

<g transform="translate(0.000000,750.000000) scale(0.100000,-0.100000)"
fill="#000000" stroke="none">
<path d="M1993 7281 c-55 -25 -77 -67 -70 -135 7 -74 44 -102 189 -144 226
-66 394 -173 434 -278 44 -114 -29 -341 -229 -719 -226 -427 -287 -573 -308
-742 -10 -84 -10 -109 4 -176 54 -256 222 -479 465 -617 58 -33 62 -37 68 -80
9 -65 42 -187 61 -224 29 -58 63 -86 105 -86 61 0 72 28 77 182 3 114 5 128
21 128 9 0 29 9 44 21 50 40 26 108 -53 149 l-24 12 6 247 c5 211 9 262 30
356 42 184 104 316 199 420 176 192 390 272 923 345 116 16 242 36 280 45 283
65 559 218 832 464 l90 80 -34 -112 c-136 -454 -155 -680 -95 -1127 68 -512
64 -630 -26 -805 -73 -141 -266 -297 -517 -419 -119 -58 -280 -116 -323 -116
-39 -1 -108 -35 -127 -63 -23 -35 -30 -92 -15 -127 11 -25 9 -37 -11 -85 -12
-30 -26 -55 -30 -55 -5 0 -45 32 -91 70 -171 144 -274 164 -411 78 -26 -17
-49 -29 -51 -27 -2 2 -19 29 -39 60 -82 130 -198 167 -361 115 l-75 -24 -3 41
c-2 30 -10 45 -30 60 -33 25 -62 18 -121 -27 l-44 -34 -14 32 c-23 53 -54 60
-244 62 -148 1 -178 4 -235 23 -168 58 -262 126 -313 227 -41 80 -76 212 -86
324 -6 58 -13 249 -16 425 -3 176 -11 356 -16 400 -39 306 -197 559 -434 694
-230 132 -479 153 -608 51 -82 -65 -73 -191 17 -234 44 -21 65 -20 128 4 70
26 141 25 227 -4 170 -58 289 -170 358 -339 50 -123 54 -165 63 -622 10 -478
16 -537 75 -712 65 -196 169 -322 325 -395 38 -18 70 -35 70 -38 0 -3 -26 -27
-57 -54 -90 -74 -153 -154 -307 -386 -154 -231 -206 -290 -303 -339 -134 -67
-280 -101 -553 -126 -96 -9 -198 -22 -225 -30 -77 -22 -115 -71 -115 -149 0
-36 6 -52 30 -79 51 -59 70 -62 243 -42 299 34 427 57 577 106 270 89 368 175
593 516 171 260 238 333 409 446 87 59 128 79 178 91 36 8 66 13 68 11 2 -2
-47 -43 -109 -92 -163 -127 -207 -170 -219 -212 -21 -78 30 -159 112 -182 57
-15 103 -4 146 35 72 65 426 252 557 294 66 21 77 18 93 -28 l11 -29 -67 -15
c-256 -58 -467 -241 -563 -489 -41 -106 -84 -282 -100 -405 -13 -103 -7 -378
11 -487 14 -91 48 -437 56 -571 8 -136 -6 -265 -38 -358 -65 -189 -230 -430
-377 -550 -61 -49 -173 -126 -185 -126 -3 0 -39 -16 -81 -36 -53 -25 -80 -44
-90 -64 -40 -77 2 -158 86 -167 40 -5 57 1 154 52 172 89 290 180 407 312 130
146 262 363 314 515 74 217 78 360 24 848 -56 491 -29 744 107 1002 64 121
225 252 359 291 51 15 53 15 90 -11 48 -33 119 -40 163 -18 17 10 48 42 67 73
41 63 102 133 116 133 14 0 138 -110 138 -122 0 -6 -16 -49 -34 -97 -47 -116
-85 -272 -101 -411 -31 -262 24 -425 268 -787 161 -239 207 -317 248 -419 35
-86 80 -236 74 -242 -5 -5 -366 200 -603 342 -339 202 -414 286 -429 482 -10
122 29 381 103 685 25 104 41 195 38 205 -13 36 -37 54 -71 54 -126 0 -288
-371 -338 -774 -30 -247 23 -445 158 -584 82 -85 255 -197 568 -370 172 -94
388 -217 523 -297 l97 -57 -6 -56 c-24 -202 -133 -364 -337 -499 -119 -77
-140 -110 -117 -177 19 -53 59 -81 114 -80 34 1 63 12 124 49 208 126 356 301
427 505 13 36 27 65 32 65 27 0 138 -162 158 -233 20 -68 14 -213 -11 -285
-22 -60 -13 -110 25 -149 52 -52 148 -29 183 44 52 109 71 296 42 423 -36 166
-168 352 -344 486 -32 25 -34 32 -52 142 -35 219 -102 430 -186 587 -25 47
-103 173 -173 280 -70 107 -143 227 -163 265 -40 81 -72 163 -65 170 2 3 19
-1 36 -7 28 -11 35 -10 59 8 33 25 42 56 31 104 -16 71 -10 114 20 142 74 70
239 114 390 106 109 -7 167 -32 242 -108 66 -65 108 -143 183 -340 78 -204
120 -300 168 -383 140 -240 312 -384 694 -577 249 -126 306 -150 366 -150 45
0 55 4 85 34 30 30 34 40 34 87 0 48 -3 55 -39 88 -22 21 -73 50 -122 70 -129
53 -363 175 -469 246 -224 149 -314 278 -454 645 -84 218 -141 339 -201 417
-146 195 -380 283 -632 239 -114 -20 -232 -62 -308 -110 -31 -21 -59 -35 -62
-33 -2 3 2 38 10 78 l13 74 56 6 c95 10 165 65 216 169 19 40 52 141 52 162 0
16 10 18 109 18 59 0 132 -4 160 -10 66 -12 185 -68 328 -153 247 -147 400
-206 611 -238 147 -22 303 11 469 101 144 77 281 194 475 403 160 174 476 551
489 584 42 110 -75 210 -185 158 -34 -16 -87 -78 -216 -249 -165 -218 -409
-482 -535 -578 -188 -142 -334 -181 -522 -140 -125 28 -208 65 -423 187 -102
58 -219 117 -260 132 -41 14 -78 29 -83 33 -4 3 12 17 35 30 83 45 244 160
311 220 154 140 252 320 288 527 14 83 7 349 -15 513 -9 63 -25 185 -36 270
-50 387 -15 593 207 1220 106 299 119 454 47 540 -33 38 -92 55 -139 40 -53
-17 -81 -45 -147 -144 -238 -355 -431 -551 -710 -717 -164 -97 -291 -135 -608
-179 -424 -58 -614 -107 -811 -207 -112 -57 -167 -97 -257 -186 -212 -209
-340 -558 -342 -932 l-1 -90 -52 57 c-157 170 -203 357 -137 560 31 96 41 117
272 568 136 268 183 379 220 525 74 294 -49 515 -377 678 -97 48 -343 137
-378 137 -12 0 -41 -9 -64 -19z"/>
<path d="M3383 4800 c-87 -52 -83 -198 6 -245 98 -50 211 16 211 123 0 85 -56
142 -140 142 -27 0 -58 -8 -77 -20z"/>
<path d="M3933 4590 c-87 -52 -83 -198 6 -245 98 -50 211 16 211 123 0 85 -56
142 -140 142 -27 0 -58 -8 -77 -20z"/>
</g>
</svg>
