<?xml version="1.0" standalone="no"?>
<!DOCTYPE svg PUBLIC "-//W3C//DTD SVG 20010904//EN"
 "http://www.w3.org/TR/2001/REC-SVG-20010904/DTD/svg10.dtd">
<svg version="1.0" xmlns="http://www.w3.org/2000/svg"
 width="750.000000pt" height="750.000000pt" viewBox="0 0 750.000000 750.000000"
 preserveAspectRatio="xMidYMid meet">

<g transform="translate(0.000000,750.000000) scale(0.100000,-0.100000)"
fill="#000000" stroke="none">
<path d="M1064 5811 c-79 -36 -93 -84 -119 -411 -48 -599 -122 -1021 -375
-2135 -135 -594 -172 -803 -173 -990 -2 -115 36 -173 123 -190 58 -11 37 -22
535 304 226 149 468 326 742 544 422 335 1066 827 1083 827 5 0 60 -42 122
-92 463 -380 795 -552 1238 -642 301 -61 699 -65 1050 -10 389 61 815 223
1261 480 233 134 531 340 560 388 29 48 25 99 -12 141 -27 30 -37 35 -76 35
-55 0 -72 -9 -153 -80 -343 -301 -809 -570 -1210 -698 -267 -85 -456 -113
-805 -119 -304 -6 -403 4 -623 58 -293 72 -556 197 -847 402 -134 95 -336 258
-330 267 8 12 251 184 470 332 683 461 1071 631 1585 694 329 40 701 -10 1040
-141 266 -102 603 -322 667 -434 32 -57 49 -71 84 -71 61 0 104 77 87 156 -39
180 -339 428 -680 563 -183 71 -490 142 -711 162 -285 27 -636 -18 -971 -122
-405 -127 -770 -337 -1465 -843 -132 -97 -244 -176 -247 -176 -21 0 -402 368
-669 646 -274 286 -487 524 -761 849 -226 269 -244 288 -296 309 -48 21 -74
20 -124 -3z m343 -586 c460 -490 961 -993 1265 -1270 l77 -71 -112 -84 c-62
-47 -173 -132 -247 -190 -211 -163 -827 -630 -963 -728 -209 -151 -407 -275
-671 -417 l-89 -48 7 99 c12 156 100 648 183 1014 105 468 265 1314 315 1669
18 127 36 230 40 228 4 -1 91 -92 195 -202z"/>
<path d="M6063 4200 c-87 -52 -83 -198 6 -245 98 -50 211 16 211 123 0 85 -56
142 -140 142 -27 0 -58 -8 -77 -20z"/>
</g>
</svg>
